<?xml version="1.0" standalone="no"?>
<!DOCTYPE svg PUBLIC "-//W3C//DTD SVG 20010904//EN"
 "http://www.w3.org/TR/2001/REC-SVG-20010904/DTD/svg10.dtd">
<svg version="1.0" xmlns="http://www.w3.org/2000/svg"
 width="870.000000pt" height="588.000000pt" viewBox="0 0 870.000000 588.000000"
 preserveAspectRatio="xMidYMid meet">
<metadata>
Created by potrace 1.16, written by Peter Selinger 2001-2019
</metadata>
<g transform="translate(0.000000,588.000000) scale(0.100000,-0.100000)"
fill="#000000" stroke="none">
<path d="M3264 5321 c-55 -24 -69 -92 -30 -138 21 -24 32 -28 76 -28 44 0 55
4 76 28 49 57 16 134 -61 142 -22 3 -50 1 -61 -4z"/>
<path d="M3844 5301 c-55 -24 -69 -92 -30 -138 21 -24 32 -28 76 -28 44 0 55
4 76 28 49 57 16 134 -61 142 -22 3 -50 1 -61 -4z"/>
<path d="M4424 5301 c-55 -24 -69 -92 -30 -138 21 -24 32 -28 76 -28 44 0 55
4 76 28 49 57 16 134 -61 142 -22 3 -50 1 -61 -4z"/>
<path d="M4984 5301 c-55 -24 -69 -92 -30 -138 21 -24 32 -28 76 -28 44 0 55
4 76 28 49 57 16 134 -61 142 -22 3 -50 1 -61 -4z"/>
<path d="M2674 4851 c-55 -24 -69 -92 -30 -138 21 -24 32 -28 76 -28 44 0 55
4 76 28 49 57 16 134 -61 142 -22 3 -50 1 -61 -4z"/>
<path d="M3844 4851 c-55 -24 -69 -92 -30 -138 21 -24 32 -28 76 -28 44 0 55
4 76 28 49 57 16 134 -61 142 -22 3 -50 1 -61 -4z"/>
<path d="M4414 4841 c-55 -24 -69 -92 -30 -138 21 -24 32 -28 76 -28 44 0 55
4 76 28 49 57 16 134 -61 142 -22 3 -50 1 -61 -4z"/>
<path d="M4974 4841 c-55 -24 -69 -92 -30 -138 21 -24 32 -28 76 -28 44 0 55
4 76 28 49 57 16 134 -61 142 -22 3 -50 1 -61 -4z"/>
<path d="M3254 4831 c-55 -24 -69 -92 -30 -138 21 -24 32 -28 76 -28 44 0 55
4 76 28 49 57 16 134 -61 142 -22 3 -50 1 -61 -4z"/>
<path d="M5584 4831 c-55 -24 -69 -92 -30 -138 21 -24 32 -28 76 -28 44 0 55
4 76 28 49 57 16 134 -61 142 -22 3 -50 1 -61 -4z"/>
<path d="M3834 4431 c-55 -24 -69 -92 -30 -138 21 -24 32 -28 76 -28 44 0 55
4 76 28 49 57 16 134 -61 142 -22 3 -50 1 -61 -4z"/>
<path d="M4414 4431 c-55 -24 -69 -92 -30 -138 21 -24 32 -28 76 -28 44 0 55
4 76 28 49 57 16 134 -61 142 -22 3 -50 1 -61 -4z"/>
<path d="M2114 4421 c-55 -24 -69 -92 -30 -138 21 -24 32 -28 76 -28 44 0 55
4 76 28 49 57 16 134 -61 142 -22 3 -50 1 -61 -4z"/>
<path d="M5574 4421 c-55 -24 -69 -92 -30 -138 21 -24 32 -28 76 -28 44 0 55
4 76 28 49 57 16 134 -61 142 -22 3 -50 1 -61 -4z"/>
<path d="M2684 4411 c-55 -24 -69 -92 -30 -138 21 -24 32 -28 76 -28 44 0 55
4 76 28 49 57 16 134 -61 142 -22 3 -50 1 -61 -4z"/>
<path d="M3264 4411 c-55 -24 -69 -92 -30 -138 21 -24 32 -28 76 -28 44 0 55
4 76 28 49 57 16 134 -61 142 -22 3 -50 1 -61 -4z"/>
<path d="M4994 4411 c-55 -24 -69 -92 -30 -138 21 -24 32 -28 76 -28 44 0 55
4 76 28 49 57 16 134 -61 142 -22 3 -50 1 -61 -4z"/>
<path d="M6144 4411 c-55 -24 -69 -92 -30 -138 21 -24 32 -28 76 -28 44 0 55
4 76 28 49 57 16 134 -61 142 -22 3 -50 1 -61 -4z"/>
<path d="M3274 3961 c-55 -24 -69 -92 -30 -138 21 -24 32 -28 76 -28 44 0 55
4 76 28 49 57 16 134 -61 142 -22 3 -50 1 -61 -4z"/>
<path d="M5584 3961 c-55 -24 -69 -92 -30 -138 21 -24 32 -28 76 -28 44 0 55
4 76 28 49 57 16 134 -61 142 -22 3 -50 1 -61 -4z"/>
<path d="M6154 3961 c-55 -24 -69 -92 -30 -138 21 -24 32 -28 76 -28 44 0 55
4 76 28 49 57 16 134 -61 142 -22 3 -50 1 -61 -4z"/>
<path d="M2114 3951 c-55 -24 -69 -92 -30 -138 21 -24 32 -28 76 -28 44 0 55
4 76 28 49 57 16 134 -61 142 -22 3 -50 1 -61 -4z"/>
<path d="M4414 3951 c-55 -24 -69 -92 -30 -138 21 -24 32 -28 76 -28 44 0 55
4 76 28 49 57 16 134 -61 142 -22 3 -50 1 -61 -4z"/>
<path d="M4974 3951 c-55 -24 -69 -92 -30 -138 21 -24 32 -28 76 -28 44 0 55
4 76 28 49 57 16 134 -61 142 -22 3 -50 1 -61 -4z"/>
<path d="M1544 3941 c-55 -24 -69 -92 -30 -138 21 -24 32 -28 76 -28 44 0 55
4 76 28 49 57 16 134 -61 142 -22 3 -50 1 -61 -4z"/>
<path d="M2684 3941 c-55 -24 -69 -92 -30 -138 21 -24 32 -28 76 -28 44 0 55
4 76 28 49 57 16 134 -61 142 -22 3 -50 1 -61 -4z"/>
<path d="M3834 3941 c-55 -24 -69 -92 -30 -138 21 -24 32 -28 76 -28 44 0 55
4 76 28 49 57 16 134 -61 142 -22 3 -50 1 -61 -4z"/>
<path d="M6724 3941 c-55 -24 -69 -92 -30 -138 21 -24 32 -28 76 -28 44 0 55
4 76 28 49 57 16 134 -61 142 -22 3 -50 1 -61 -4z"/>
<path d="M4424 3501 c-59 -25 -70 -96 -24 -143 28 -28 36 -30 78 -25 82 9 119
84 69 142 -24 29 -86 42 -123 26z"/>
<path d="M3834 3491 c-55 -24 -69 -92 -30 -138 21 -24 32 -28 76 -28 44 0 55
4 76 28 49 57 16 134 -61 142 -22 3 -50 1 -61 -4z"/>
<path d="M6714 3491 c-55 -24 -69 -92 -30 -138 21 -24 32 -28 76 -28 44 0 55
4 76 28 49 57 16 134 -61 142 -22 3 -50 1 -61 -4z"/>
<path d="M2104 3481 c-55 -24 -69 -92 -30 -138 21 -24 32 -28 76 -28 44 0 55
4 76 28 49 57 16 134 -61 142 -22 3 -50 1 -61 -4z"/>
<path d="M5004 3481 c-55 -24 -69 -92 -30 -138 21 -24 32 -28 76 -28 44 0 55
4 76 28 49 57 16 134 -61 142 -22 3 -50 1 -61 -4z"/>
<path d="M5574 3481 c-55 -24 -69 -92 -30 -138 21 -24 32 -28 76 -28 44 0 55
4 76 28 49 57 16 134 -61 142 -22 3 -50 1 -61 -4z"/>
<path d="M6154 3481 c-55 -24 -69 -92 -30 -138 21 -24 32 -28 76 -28 44 0 55
4 76 28 49 57 16 134 -61 142 -22 3 -50 1 -61 -4z"/>
<path d="M2674 3471 c-55 -24 -69 -92 -30 -138 21 -24 32 -28 76 -28 44 0 55
4 76 28 49 57 16 134 -61 142 -22 3 -50 1 -61 -4z"/>
<path d="M3274 3471 c-55 -24 -69 -92 -30 -138 21 -24 32 -28 76 -28 44 0 55
4 76 28 49 57 16 134 -61 142 -22 3 -50 1 -61 -4z"/>
<path d="M1544 3451 c-55 -24 -69 -92 -30 -138 21 -24 32 -28 76 -28 44 0 55
4 76 28 49 57 16 134 -61 142 -22 3 -50 1 -61 -4z"/>
<path d="M4414 3021 c-55 -24 -69 -92 -30 -138 21 -24 32 -28 76 -28 44 0 55
4 76 28 49 57 16 134 -61 142 -22 3 -50 1 -61 -4z"/>
<path d="M4994 3021 c-55 -24 -69 -92 -30 -138 21 -24 32 -28 76 -28 44 0 55
4 76 28 49 57 16 134 -61 142 -22 3 -50 1 -61 -4z"/>
<path d="M5574 3021 c-55 -24 -69 -92 -30 -138 21 -24 32 -28 76 -28 44 0 55
4 76 28 49 57 16 134 -61 142 -22 3 -50 1 -61 -4z"/>
<path d="M6154 3021 c-55 -24 -69 -92 -30 -138 21 -24 32 -28 76 -28 44 0 55
4 76 28 49 57 16 134 -61 142 -22 3 -50 1 -61 -4z"/>
<path d="M6714 3021 c-55 -24 -69 -92 -30 -138 21 -24 32 -28 76 -28 44 0 55
4 76 28 49 57 16 134 -61 142 -22 3 -50 1 -61 -4z"/>
<path d="M2104 3001 c-55 -24 -69 -92 -30 -138 21 -24 32 -28 76 -28 44 0 55
4 76 28 49 57 16 134 -61 142 -22 3 -50 1 -61 -4z"/>
<path d="M3834 3001 c-55 -24 -69 -92 -30 -138 21 -24 32 -28 76 -28 44 0 55
4 76 28 49 57 16 134 -61 142 -22 3 -50 1 -61 -4z"/>
<path d="M1514 2991 c-55 -24 -69 -92 -30 -138 21 -24 32 -28 76 -28 44 0 55
4 76 28 49 57 16 134 -61 142 -22 3 -50 1 -61 -4z"/>
<path d="M2694 2991 c-55 -24 -69 -92 -30 -138 21 -24 32 -28 76 -28 44 0 55
4 76 28 49 57 16 134 -61 142 -22 3 -50 1 -61 -4z"/>
<path d="M3264 2991 c-55 -24 -69 -92 -30 -138 21 -24 32 -28 76 -28 44 0 55
4 76 28 49 57 16 134 -61 142 -22 3 -50 1 -61 -4z"/>
<path d="M1524 2551 c-55 -24 -69 -92 -30 -138 21 -24 32 -28 76 -28 44 0 55
4 76 28 49 57 16 134 -61 142 -22 3 -50 1 -61 -4z"/>
<path d="M3264 2551 c-55 -24 -69 -92 -30 -138 21 -24 32 -28 76 -28 44 0 55
4 76 28 49 57 16 134 -61 142 -22 3 -50 1 -61 -4z"/>
<path d="M2674 2541 c-55 -24 -69 -92 -30 -138 21 -24 32 -28 76 -28 44 0 55
4 76 28 49 57 16 134 -61 142 -22 3 -50 1 -61 -4z"/>
<path d="M4404 2541 c-55 -24 -69 -92 -30 -138 21 -24 32 -28 76 -28 44 0 55
4 76 28 49 57 16 134 -61 142 -22 3 -50 1 -61 -4z"/>
<path d="M6144 2541 c-55 -24 -69 -92 -30 -138 21 -24 32 -28 76 -28 44 0 55
4 76 28 49 57 16 134 -61 142 -22 3 -50 1 -61 -4z"/>
<path d="M3824 2531 c-55 -24 -69 -92 -30 -138 21 -24 32 -28 76 -28 44 0 55
4 76 28 49 57 16 134 -61 142 -22 3 -50 1 -61 -4z"/>
<path d="M4984 2531 c-55 -24 -69 -92 -30 -138 21 -24 32 -28 76 -28 44 0 55
4 76 28 49 57 16 134 -61 142 -22 3 -50 1 -61 -4z"/>
<path d="M5584 2531 c-55 -24 -69 -92 -30 -138 21 -24 32 -28 76 -28 44 0 55
4 76 28 49 57 16 134 -61 142 -22 3 -50 1 -61 -4z"/>
<path d="M2094 2521 c-55 -24 -69 -92 -30 -138 21 -24 32 -28 76 -28 44 0 55
4 76 28 49 57 16 134 -61 142 -22 3 -50 1 -61 -4z"/>
<path d="M6714 2511 c-55 -24 -69 -92 -30 -138 21 -24 32 -28 76 -28 44 0 55
4 76 28 49 57 16 134 -61 142 -22 3 -50 1 -61 -4z"/>
<path d="M4414 2081 c-55 -24 -69 -92 -30 -138 21 -24 32 -28 76 -28 44 0 55
4 76 28 49 57 16 134 -61 142 -22 3 -50 1 -61 -4z"/>
<path d="M4994 2081 c-55 -24 -69 -92 -30 -138 21 -24 32 -28 76 -28 44 0 55
4 76 28 49 57 16 134 -61 142 -22 3 -50 1 -61 -4z"/>
<path d="M3264 2071 c-55 -24 -69 -92 -30 -138 21 -24 32 -28 76 -28 44 0 55
4 76 28 49 57 16 134 -61 142 -22 3 -50 1 -61 -4z"/>
<path d="M3824 2071 c-55 -24 -69 -92 -30 -138 21 -24 32 -28 76 -28 44 0 55
4 76 28 49 57 16 134 -61 142 -22 3 -50 1 -61 -4z"/>
<path d="M2684 2061 c-55 -24 -69 -92 -30 -138 21 -24 32 -28 76 -28 44 0 55
4 76 28 49 57 16 134 -61 142 -22 3 -50 1 -61 -4z"/>
<path d="M5574 2061 c-55 -24 -69 -92 -30 -138 21 -24 32 -28 76 -28 44 0 55
4 76 28 49 57 16 134 -61 142 -22 3 -50 1 -61 -4z"/>
<path d="M6164 2061 c-55 -24 -69 -92 -30 -138 21 -24 32 -28 76 -28 44 0 55
4 76 28 49 57 16 134 -61 142 -22 3 -50 1 -61 -4z"/>
<path d="M1524 2051 c-55 -24 -69 -92 -30 -138 21 -24 32 -28 76 -28 44 0 55
4 76 28 49 57 16 134 -61 142 -22 3 -50 1 -61 -4z"/>
<path d="M2094 2051 c-55 -24 -69 -92 -30 -138 21 -24 32 -28 76 -28 44 0 55
4 76 28 49 57 16 134 -61 142 -22 3 -50 1 -61 -4z"/>
<path d="M6704 2051 c-55 -24 -69 -92 -30 -138 21 -24 32 -28 76 -28 44 0 55
4 76 28 49 57 16 134 -61 142 -22 3 -50 1 -61 -4z"/>
<path d="M3244 1611 c-12 -5 -29 -20 -38 -33 -40 -57 -2 -126 76 -135 42 -5
50 -3 78 25 37 37 40 80 7 117 -24 29 -86 42 -123 26z"/>
<path d="M2094 1601 c-55 -24 -69 -92 -30 -138 21 -24 32 -28 76 -28 44 0 55
4 76 28 49 57 16 134 -61 142 -22 3 -50 1 -61 -4z"/>
<path d="M5584 1591 c-55 -24 -69 -92 -30 -138 21 -24 32 -28 76 -28 44 0 55
4 76 28 49 57 16 134 -61 142 -22 3 -50 1 -61 -4z"/>
<path d="M6164 1591 c-55 -24 -69 -92 -30 -138 21 -24 32 -28 76 -28 44 0 55
4 76 28 49 57 16 134 -61 142 -22 3 -50 1 -61 -4z"/>
<path d="M2684 1581 c-55 -24 -69 -92 -30 -138 21 -24 32 -28 76 -28 44 0 55
4 76 28 49 57 16 134 -61 142 -22 3 -50 1 -61 -4z"/>
<path d="M3804 1581 c-55 -24 -69 -92 -30 -138 21 -24 32 -28 76 -28 44 0 55
4 76 28 49 57 16 134 -61 142 -22 3 -50 1 -61 -4z"/>
<path d="M5004 1581 c-55 -24 -69 -92 -30 -138 21 -24 32 -28 76 -28 44 0 55
4 76 28 49 57 16 134 -61 142 -22 3 -50 1 -61 -4z"/>
<path d="M4424 1571 c-55 -24 -69 -92 -30 -138 21 -24 32 -28 76 -28 44 0 55
4 76 28 49 57 16 134 -61 142 -22 3 -50 1 -61 -4z"/>
<path d="M3844 1141 c-59 -25 -70 -96 -24 -143 28 -28 36 -30 78 -25 82 9 119
84 69 142 -24 29 -86 42 -123 26z"/>
<path d="M2694 1121 c-55 -24 -69 -92 -30 -138 21 -24 32 -28 76 -28 44 0 55
4 76 28 49 57 16 134 -61 142 -22 3 -50 1 -61 -4z"/>
<path d="M3274 1121 c-55 -24 -69 -92 -30 -138 21 -24 32 -28 76 -28 44 0 55
4 76 28 49 57 16 134 -61 142 -22 3 -50 1 -61 -4z"/>
<path d="M4984 1121 c-55 -24 -69 -92 -30 -138 21 -24 32 -28 76 -28 44 0 55
4 76 28 49 57 16 134 -61 142 -22 3 -50 1 -61 -4z"/>
<path d="M4414 1111 c-55 -24 -69 -92 -30 -138 21 -24 32 -28 76 -28 44 0 55
4 76 28 49 57 16 134 -61 142 -22 3 -50 1 -61 -4z"/>
<path d="M5584 1111 c-55 -24 -69 -92 -30 -138 21 -24 32 -28 76 -28 44 0 55
4 76 28 49 57 16 134 -61 142 -22 3 -50 1 -61 -4z"/>
<path d="M3264 711 c-55 -24 -69 -92 -30 -138 21 -24 32 -28 76 -28 44 0 55 4
76 28 49 57 16 134 -61 142 -22 3 -50 1 -61 -4z"/>
<path d="M3844 711 c-55 -24 -69 -92 -30 -138 21 -24 32 -28 76 -28 44 0 55 4
76 28 49 57 16 134 -61 142 -22 3 -50 1 -61 -4z"/>
<path d="M4414 691 c-55 -24 -69 -92 -30 -138 21 -24 32 -28 76 -28 44 0 55 4
76 28 49 57 16 134 -61 142 -22 3 -50 1 -61 -4z"/>
<path d="M4970 642 c-37 -38 -40 -80 -6 -119 21 -24 32 -28 76 -28 44 0 55 4
76 28 51 59 15 135 -68 144 -42 5 -50 3 -78 -25z"/>
</g>
</svg>
