<?xml version="1.0" standalone="no"?>
<!DOCTYPE svg PUBLIC "-//W3C//DTD SVG 20010904//EN"
 "http://www.w3.org/TR/2001/REC-SVG-20010904/DTD/svg10.dtd">
<svg version="1.0" xmlns="http://www.w3.org/2000/svg"
 width="555.000000pt" height="450.000000pt" viewBox="0 0 555.000000 450.000000"
 preserveAspectRatio="xMidYMid meet">
<metadata>
Created by potrace 1.16, written by Peter Selinger 2001-2019
</metadata>
<g transform="translate(0.000000,450.000000) scale(0.100000,-0.100000)"
fill="#000000" stroke="none">
<path d="M1483 4310 c-53 -32 -93 -126 -159 -374 -54 -203 -99 -286 -154 -286
-73 0 -128 101 -190 350 -45 179 -106 287 -175 310 -84 28 -141 -35 -198 -215
-40 -128 -42 -145 -20 -145 15 0 22 12 32 53 29 114 72 214 105 246 29 28 39
32 66 26 60 -13 102 -95 163 -315 61 -219 92 -284 156 -327 45 -30 82 -29 121
3 54 46 84 122 160 402 33 124 79 226 109 242 88 47 149 -40 222 -320 62 -237
122 -330 212 -330 81 0 124 70 196 317 55 192 78 248 114 290 26 30 35 34 61
29 69 -14 104 -79 171 -315 68 -244 119 -331 201 -347 80 -15 136 63 194 274
97 350 121 402 189 402 77 0 115 -72 196 -368 33 -124 84 -231 124 -265 24
-20 43 -27 74 -27 71 1 108 46 157 190 18 52 36 104 41 115 5 11 20 60 34 108
44 153 85 217 140 217 68 0 112 -78 176 -310 48 -177 105 -300 153 -329 18
-12 50 -21 71 -21 77 0 119 76 194 351 52 190 76 253 113 295 37 42 65 43 109
7 43 -36 82 -126 124 -281 69 -263 117 -344 205 -358 75 -11 134 66 184 238
38 134 38 138 21 138 -9 0 -17 -6 -19 -12 -42 -145 -81 -252 -106 -286 -26
-36 -35 -42 -66 -42 -73 0 -131 105 -188 337 -42 171 -96 281 -154 312 -39 21
-97 14 -127 -16 -47 -47 -76 -125 -154 -407 -51 -181 -84 -236 -144 -236 -20
0 -42 8 -57 22 -35 32 -85 149 -119 278 -74 279 -124 360 -222 360 -72 0 -118
-69 -178 -270 -87 -287 -117 -354 -163 -365 -81 -20 -142 75 -203 315 -49 193
-97 293 -158 330 -60 37 -120 17 -161 -53 -29 -49 -75 -186 -112 -330 -48
-192 -97 -277 -157 -277 -64 0 -119 100 -177 322 -56 211 -96 292 -163 328
-109 58 -170 -22 -253 -335 -53 -199 -105 -295 -161 -295 -35 0 -87 53 -116
118 -15 32 -42 116 -61 187 -61 228 -107 324 -171 351 -46 19 -64 18 -102 -6z"/>
<path d="M1443 3625 c-17 -7 -44 -32 -58 -56 -26 -40 -77 -189 -125 -363 -50
-185 -87 -246 -146 -246 -69 0 -119 90 -183 330 -67 253 -117 330 -214 330
-50 0 -85 -33 -123 -114 -35 -78 -81 -232 -71 -242 16 -16 36 9 47 58 20 86
68 201 95 231 52 55 115 28 164 -70 12 -23 39 -107 62 -185 69 -244 105 -324
162 -359 72 -44 140 -9 188 96 15 33 47 135 72 226 58 209 81 270 117 309 82
87 166 -16 235 -290 55 -218 111 -320 185 -340 46 -12 75 -3 112 37 36 37 66
112 122 307 70 238 111 305 177 286 17 -5 37 -14 45 -21 28 -23 74 -137 115
-284 67 -240 121 -337 196 -351 97 -18 142 55 229 373 46 171 90 275 123 293
83 44 149 -46 215 -297 62 -234 107 -320 179 -348 42 -16 47 -16 82 0 45 22
85 89 120 200 14 44 29 89 34 100 5 11 25 72 45 136 42 133 80 189 125 189 68
0 119 -88 175 -296 75 -279 126 -364 220 -364 55 0 80 20 116 89 28 56 43 103
111 346 34 123 71 199 111 228 26 19 27 19 65 1 62 -31 86 -85 168 -374 49
-177 103 -263 172 -276 79 -15 132 45 183 203 39 120 47 173 28 173 -9 0 -20
-26 -32 -72 -25 -97 -64 -196 -93 -235 -20 -27 -31 -33 -62 -33 -73 0 -125 92
-185 325 -60 235 -125 335 -216 335 -78 0 -124 -82 -199 -357 -53 -190 -94
-289 -131 -311 -28 -17 -71 -7 -98 21 -32 34 -77 141 -107 252 -76 286 -123
370 -213 382 -81 11 -124 -49 -192 -267 -67 -217 -90 -283 -116 -322 -48 -75
-120 -59 -171 38 -31 60 -51 120 -98 294 -32 121 -86 232 -126 261 -38 27 -96
30 -132 7 -34 -23 -79 -119 -118 -253 -100 -350 -127 -405 -193 -405 -61 0
-112 82 -161 260 -87 320 -134 400 -232 400 -39 0 -50 -5 -79 -35 -37 -40 -85
-156 -114 -278 -21 -88 -60 -209 -80 -248 -24 -46 -63 -79 -93 -79 -62 0 -131
120 -171 295 -35 153 -92 289 -137 332 -22 20 -70 44 -87 43 -4 -1 -21 -7 -39
-15z"/>
<path d="M1437 2985 c-16 -8 -37 -25 -47 -37 -29 -35 -74 -156 -120 -326 -63
-234 -99 -302 -159 -302 -68 0 -125 96 -176 297 -45 173 -86 273 -131 320 -36
38 -46 43 -86 43 -60 0 -90 -24 -127 -103 -25 -53 -81 -225 -81 -249 0 -4 8
-8 18 -8 15 0 24 17 41 83 30 111 68 193 103 222 24 20 33 22 60 14 61 -17
100 -88 153 -281 78 -284 123 -363 213 -375 88 -12 133 61 206 329 73 268 114
348 179 348 64 0 120 -101 176 -316 61 -229 111 -321 190 -344 43 -12 90 7
119 48 39 54 57 104 126 347 28 98 72 198 97 221 26 24 76 20 107 -8 36 -34
75 -126 116 -274 73 -271 130 -364 223 -364 74 0 120 76 183 302 61 220 71
250 92 293 29 58 57 85 89 85 67 0 126 -101 179 -305 62 -237 116 -338 191
-354 48 -11 89 7 124 53 27 36 83 182 131 346 48 160 91 230 145 230 64 0 115
-89 173 -305 51 -186 82 -260 131 -311 37 -39 46 -44 87 -44 87 0 118 52 203
350 64 226 94 294 136 316 73 37 141 -49 195 -246 80 -295 130 -391 211 -406
79 -15 132 45 183 203 39 120 47 173 28 173 -9 0 -20 -26 -32 -72 -23 -87 -69
-203 -94 -238 -14 -18 -30 -26 -59 -28 -36 -3 -44 1 -74 37 -40 46 -76 140
-120 309 -55 214 -121 312 -208 312 -83 -1 -127 -81 -205 -367 -48 -179 -74
-243 -113 -282 -27 -27 -38 -32 -61 -27 -64 15 -121 125 -177 344 -58 228
-120 322 -214 322 -66 0 -114 -72 -171 -260 -85 -280 -96 -307 -138 -352 -59
-63 -128 -17 -181 122 -17 44 -38 109 -46 144 -63 269 -145 393 -246 371 -64
-14 -110 -104 -174 -340 -75 -276 -105 -335 -171 -335 -69 0 -122 93 -179 309
-71 271 -121 351 -223 351 -82 0 -134 -95 -202 -370 -29 -115 -76 -226 -107
-250 -85 -67 -163 35 -229 299 -37 149 -101 292 -144 322 -37 26 -81 31 -113
14z"/>
<path d="M1395 2285 c-59 -30 -92 -102 -160 -352 -67 -245 -103 -313 -164
-313 -68 0 -119 87 -175 296 -52 194 -83 270 -131 321 -36 37 -47 43 -84 43
-23 0 -51 -5 -62 -10 -32 -17 -68 -85 -103 -193 -48 -146 -50 -157 -28 -157
15 0 24 19 46 93 53 178 87 231 147 229 17 0 40 -9 51 -19 35 -32 77 -129 114
-265 50 -185 88 -278 133 -330 36 -40 42 -43 91 -43 47 0 55 3 81 35 32 38 81
155 103 247 71 290 120 393 187 393 65 0 119 -92 174 -300 67 -253 116 -341
197 -359 90 -21 141 48 208 279 79 269 106 331 155 350 79 30 133 -55 209
-335 62 -225 127 -325 211 -325 77 0 124 81 196 343 72 259 111 337 169 337
68 0 128 -101 175 -290 66 -266 127 -370 219 -370 91 0 129 66 231 405 49 163
88 225 143 225 60 0 117 -91 161 -260 80 -305 136 -400 238 -400 82 0 122 77
208 398 40 149 78 236 117 265 22 16 31 18 59 8 58 -19 107 -113 154 -296 51
-194 101 -309 150 -341 13 -9 42 -18 63 -21 55 -7 101 35 140 130 32 77 76
236 68 244 -10 11 -36 -7 -36 -24 0 -26 -50 -183 -72 -228 -42 -84 -92 -107
-147 -68 -36 24 -88 149 -128 301 -49 191 -100 297 -156 329 -35 19 -91 16
-121 -8 -47 -37 -83 -123 -146 -353 -47 -172 -83 -259 -118 -287 -34 -26 -56
-24 -96 11 -44 39 -85 136 -131 312 -73 274 -159 374 -267 311 -36 -22 -84
-118 -123 -248 -90 -300 -127 -375 -184 -375 -70 0 -130 105 -186 325 -54 213
-107 311 -181 335 -105 35 -159 -56 -258 -431 -29 -111 -70 -204 -100 -224
-82 -58 -152 35 -221 293 -72 272 -123 354 -220 354 -18 0 -44 -7 -57 -16 -46
-30 -98 -154 -148 -356 -29 -115 -76 -226 -107 -250 -86 -67 -165 40 -233 313
-33 135 -99 280 -140 309 -36 26 -80 31 -115 13z"/>
<path d="M1365 1615 c-59 -30 -92 -102 -160 -352 -68 -249 -102 -313 -166
-313 -67 0 -120 95 -180 321 -66 249 -122 339 -210 339 -22 0 -49 -5 -60 -10
-32 -17 -68 -85 -103 -193 -48 -146 -50 -157 -28 -157 15 0 24 19 46 93 39
129 64 183 98 212 32 27 67 26 102 -4 33 -29 75 -128 112 -263 72 -268 126
-364 211 -375 95 -12 139 61 219 366 59 226 104 311 165 311 66 0 118 -89 173
-296 52 -194 83 -270 131 -321 37 -38 46 -43 87 -43 88 0 119 51 202 327 30
101 64 203 76 228 58 119 138 106 201 -33 16 -35 43 -116 59 -179 76 -284 137
-381 233 -369 21 2 48 13 59 23 36 31 84 151 132 328 82 300 134 371 221 303
36 -28 90 -146 116 -251 69 -282 129 -387 223 -387 91 0 129 66 231 405 49
165 88 225 145 225 59 0 114 -90 159 -260 79 -300 137 -400 233 -400 86 0 125
72 213 400 21 74 48 159 62 187 77 165 182 97 254 -162 90 -330 136 -410 235
-410 57 0 94 37 133 129 32 76 75 235 67 243 -10 11 -36 -7 -36 -24 0 -26 -50
-183 -72 -228 -32 -62 -57 -85 -96 -85 -68 0 -124 101 -182 329 -44 177 -97
287 -153 318 -35 20 -91 16 -122 -9 -36 -28 -86 -137 -120 -263 -75 -275 -105
-351 -150 -381 -50 -33 -110 14 -155 122 -16 40 -46 133 -65 206 -73 272 -156
370 -265 313 -40 -21 -86 -120 -148 -325 -60 -195 -73 -228 -108 -269 -31 -38
-69 -41 -109 -9 -40 32 -88 143 -129 301 -57 219 -108 313 -182 337 -77 26
-134 -29 -186 -180 -10 -30 -37 -122 -59 -204 -43 -158 -86 -258 -118 -276
-84 -45 -151 49 -220 310 -67 257 -121 342 -215 342 -86 0 -129 -78 -211 -386
-62 -232 -124 -300 -209 -226 -42 37 -86 143 -126 304 -42 168 -99 289 -148
315 -36 18 -77 21 -107 6z"/>
<path d="M1295 876 c-41 -44 -75 -128 -124 -313 -52 -196 -78 -261 -117 -300
-42 -43 -68 -42 -114 5 -40 40 -66 101 -106 247 -67 243 -106 328 -167 365
-104 64 -173 -14 -247 -273 -16 -59 -17 -69 -4 -74 8 -3 17 -3 19 -1 3 2 19
51 35 108 48 159 87 220 142 220 64 0 115 -93 178 -324 68 -248 123 -336 214
-336 89 0 124 63 211 390 62 230 110 305 183 279 54 -19 112 -134 151 -300 26
-113 76 -249 106 -289 66 -89 154 -93 209 -10 31 48 52 97 77 185 11 39 31
106 43 150 52 180 92 245 149 245 39 0 87 -51 115 -122 12 -29 42 -123 66
-209 71 -251 122 -329 212 -329 35 0 51 6 70 25 41 41 80 139 129 320 53 198
101 307 143 324 78 32 142 -62 204 -298 37 -145 82 -263 115 -302 69 -82 155
-76 208 16 26 44 72 170 121 333 67 222 127 276 210 189 36 -39 70 -124 118
-302 64 -234 132 -333 219 -322 21 3 48 14 59 24 33 29 83 147 118 278 91 345
145 424 235 353 36 -28 87 -140 115 -248 72 -289 130 -390 224 -390 53 0 83
22 118 87 29 53 92 254 86 277 -7 33 -28 -3 -53 -89 -34 -119 -82 -216 -118
-235 -25 -14 -30 -13 -65 5 -52 28 -102 133 -148 310 -54 212 -100 301 -171
331 -46 20 -67 17 -103 -12 -43 -37 -74 -102 -116 -246 -96 -333 -118 -385
-167 -402 -85 -30 -135 55 -222 374 -60 223 -141 317 -239 276 -57 -24 -108
-133 -172 -368 -25 -94 -75 -211 -101 -240 -22 -25 -74 -23 -108 4 -40 31 -87
142 -129 303 -61 235 -125 335 -216 335 -78 0 -123 -80 -199 -357 -53 -190
-94 -289 -131 -311 -28 -17 -71 -7 -98 21 -32 34 -77 141 -107 252 -76 287
-123 370 -214 382 -90 12 -137 -64 -212 -346 -58 -219 -98 -291 -163 -291 -72
0 -118 83 -182 324 -42 160 -102 289 -147 317 -18 10 -49 19 -71 19 -31 0 -45
-7 -71 -34z"/>
</g>
</svg>
